<?xml version="1.0" encoding="UTF-8" standalone="no"?>
<!-- Created with Inkscape (http://www.inkscape.org/) -->

<svg
   version="1.1"
   id="svg1"
   width="1290"
   height="994"
   viewBox="0 0 1290 994"
   sodipodi:docname="bvrt_c_6.png"
   inkscape:version="1.4 (86a8ad7, 2024-10-11)"
   xmlns:inkscape="http://www.inkscape.org/namespaces/inkscape"
   xmlns:sodipodi="http://sodipodi.sourceforge.net/DTD/sodipodi-0.dtd"
   xmlns="http://www.w3.org/2000/svg"
   xmlns:svg="http://www.w3.org/2000/svg">
  <defs
     id="defs1" />
  <sodipodi:namedview
     id="namedview1"
     pagecolor="#ffffff"
     bordercolor="#000000"
     borderopacity="0.25"
     inkscape:showpageshadow="2"
     inkscape:pageopacity="0.0"
     inkscape:pagecheckerboard="0"
     inkscape:deskcolor="#d1d1d1"
     inkscape:zoom="0.79979879"
     inkscape:cx="645.16226"
     inkscape:cy="583.2717"
     inkscape:window-width="1920"
     inkscape:window-height="1013"
     inkscape:window-x="1781"
     inkscape:window-y="1791"
     inkscape:window-maximized="1"
     inkscape:current-layer="g1" />
  <g
     inkscape:groupmode="layer"
     inkscape:label="Image"
     id="g1">
    <path
       style="fill:#000000"
       d="m 679.28259,643.29404 c -0.29842,-0.77767 -0.31876,-68.73687 -0.0452,-151.02044 0.47536,-142.98421 0.57763,-149.66516 2.31024,-150.93208 1.48619,-1.08673 28.40428,-1.32371 149.38262,-1.31516 81.16337,0.006 148.13372,0.36712 148.823,0.80306 0.99714,0.63064 1.20149,31.73924 1,152.2316 L 980.5,644.5 830.16259,644.604 c -128.7127,0.089 -150.41546,-0.0994 -150.88,-1.30996 z M 976.29452,641 c 1.12835,-1.22673 1.77265,-61.60434 1.85991,-174.2923 0.0519,-66.98577 -0.11532,-122.00192 -0.37152,-122.25812 -0.59142,-0.59143 -292.69886,-0.61956 -293.65556,-0.0283 -0.39043,0.2413 -0.81846,17.00773 -0.95117,37.25872 -0.13271,20.25099 -0.4751,53.46999 -0.76086,73.81999 l -0.51956,37 74.27686,0.30462 c 56.23946,0.23065 74.46141,0.59491 75.03681,1.5 0.41797,0.65746 0.85079,14.92038 0.96181,31.69538 0.11103,16.775 0.26986,31.85 0.35294,33.5 0.0831,1.65 0.22414,20.65538 0.31345,42.23418 L 833,640.96836 l 27.75,0.28188 c 44.23653,0.44935 115.04208,0.296 115.54452,-0.25024 z M 829.68353,569.35653 c -0.35043,-39.40391 -0.90983,-71.91641 -1.24312,-72.25 -0.64107,-0.64167 -122.76849,-1.81033 -137.69041,-1.3176 L 682,496.07787 V 568.53893 641 h 74.16034 74.16033 z M 300.16048,641.25 c -0.51676,-0.99389 -0.75548,-17.08814 -0.55252,-37.25 0.19656,-19.525 0.59146,-62.275 0.87756,-95 0.97348,-111.34742 1.59664,-167.4155 1.86369,-167.68254 0.56047,-0.56047 301.64861,-0.65297 302.20874,-0.0928 0.62706,0.62705 0.68071,19.95072 0.53457,192.52538 L 605,643 H 453.03518 c -143.7151,0 -152.01421,-0.095 -152.8747,-1.75 z M 556,640.53101 l 45.5,-0.031 0.25667,-71.93686 c 0.20286,-56.85545 -0.006,-72.09951 -0.99864,-72.71268 -0.69041,-0.42671 -33.82453,-0.80074 -73.63137,-0.83119 -39.80683,-0.0305 -72.76994,-0.29881 -73.25136,-0.59634 C 453.3875,494.12145 453,460.70535 453,418.94098 V 344 l -3.75,-0.0292 c -39.67581,-0.3089 -142.88469,0.2708 -143.39981,0.80544 -0.38353,0.39807 -0.96878,41.22376 -1.30056,90.72376 -0.33177,49.5 -0.80503,115.2 -1.05168,146 -0.24664,30.8 -0.0901,56.5712 0.34777,57.26933 0.63363,1.01015 19.87328,1.2848 94.22524,1.34508 51.38597,0.0417 94.55404,0.46485 95.92904,0.9404 1.375,0.47556 5.65,0.55922 9.5,0.18592 3.85,-0.37329 27.475,-0.69267 52.5,-0.70972 z M 602,418.02446 V 344 l -53.25,0.0159 c -29.2875,0.009 -61.539,-0.1728 -71.66999,-0.40338 -10.131,-0.23058 -19.0185,-0.18957 -19.75,0.0911 C 456.24005,344.12186 456,357.4577 456,417.59117 v 73.37719 l 27.75,0.26582 c 15.2625,0.1462 48.1125,0.38933 73,0.54028 l 45.25,0.27446 z m 556,2.17387 c -10.8429,-3.02878 -21.2253,-12.00251 -26.1134,-22.5703 -2.7768,-6.00335 -3.3611,-8.55976 -3.7034,-16.20206 -0.3888,-8.68103 -0.2537,-9.40445 3.1184,-16.70293 4.3945,-9.5114 10.4046,-15.54463 20.1585,-20.23603 6.5337,-3.14262 8.0913,-3.48701 15.7704,-3.48701 6.9737,0 9.5744,0.46601 14.3246,2.56678 8.0099,3.54238 13.9739,8.03178 17.7937,13.39425 12.3559,17.34612 10.6759,38.10955 -4.295,53.08042 -6.9046,6.90459 -14.5284,10.03292 -25.5538,10.48565 -4.95,0.20326 -10.125,0.0553 -11.5,-0.32877 z m 23.5,-5.25024 c 9.0532,-3.40101 17.7996,-12.91933 21.3529,-23.23741 2.1767,-6.32069 1.6895,-18.9449 -0.9449,-24.48187 -5.6669,-11.91089 -11.5659,-17.40793 -22.7094,-21.1619 -12.5507,-4.22804 -24.5237,-1.83213 -34.7715,6.95814 -16.5112,14.16274 -17.6184,37.23866 -2.5545,53.23893 10.1871,10.82029 25.1895,14.10798 39.6274,8.68411 z"
       id="path1" />
  </g>
</svg>
