<?xml version="1.0" encoding="UTF-8" standalone="no"?>
<!-- Created with Inkscape (http://www.inkscape.org/) -->

<svg
   version="1.1"
   id="svg1"
   width="1289"
   height="1000"
   viewBox="0 0 1289 1000"
   sodipodi:docname="bvrt_c_10.png"
   inkscape:version="1.4 (86a8ad7, 2024-10-11)"
   xmlns:inkscape="http://www.inkscape.org/namespaces/inkscape"
   xmlns:sodipodi="http://sodipodi.sourceforge.net/DTD/sodipodi-0.dtd"
   xmlns="http://www.w3.org/2000/svg"
   xmlns:svg="http://www.w3.org/2000/svg">
  <defs
     id="defs1" />
  <sodipodi:namedview
     id="namedview1"
     pagecolor="#ffffff"
     bordercolor="#000000"
     borderopacity="0.25"
     inkscape:showpageshadow="2"
     inkscape:pageopacity="0.0"
     inkscape:pagecheckerboard="0"
     inkscape:deskcolor="#d1d1d1"
     inkscape:zoom="1.1242998"
     inkscape:cx="625.27807"
     inkscape:cy="543.00464"
     inkscape:window-width="1920"
     inkscape:window-height="1013"
     inkscape:window-x="1781"
     inkscape:window-y="1791"
     inkscape:window-maximized="1"
     inkscape:current-layer="g1" />
  <g
     inkscape:groupmode="layer"
     inkscape:label="Image"
     id="g1">
    <path
       style="fill:#000000"
       d="m 447.92239,639.17967 c -3.61769,-3.67382 -13.74269,-13.63388 -22.5,-22.13347 -14.40242,-13.97855 -104.85175,-102.56738 -113.39056,-111.05816 -1.94251,-1.93158 -4.7969,-4.32252 -6.3431,-5.3132 -1.80186,-1.15449 -2.6995,-2.4968 -2.5,-3.73843 0.36003,-2.24065 27.92592,-31.22765 85.95722,-90.38857 11.35527,-11.57631 27.55527,-28.2359 36,-37.02132 C 450.55493,343.09247 452.64162,341 453.59362,341 c 0.50338,0 28.25235,27.1125 61.66439,60.25 C 606.3534,491.59688 609,494.26111 609,495.61644 c 0,0.69074 -33.37685,34.80961 -74.17078,75.81972 -66.94032,67.29506 -74.47096,74.55698 -77.25,74.49351 -2.43046,-0.0555 -4.46506,-1.47767 -9.65683,-6.75 z m 36.68885,-22.10559 c 14.23882,-14.25926 30.3472,-30.47385 35.79641,-36.03243 l 9.90765,-10.10652 -31.76765,-31.21756 C 481.07544,522.54791 464.69633,506.7 462.14963,504.5 459.60293,502.3 442.21494,485.33406 423.50964,466.7979 385.75623,429.38589 380.07644,424 378.37634,424 c -1.52541,0 -47.7833,46.92404 -68.83617,69.82746 l -2.95982,3.22 6.91146,6.22627 c 3.80131,3.42445 13.46911,12.75127 21.484,20.72627 8.01489,7.975 29.36676,28.9 47.44861,46.5 18.08185,17.6 42.14597,41.1038 53.47583,52.23067 11.32986,11.12688 21.09981,20.23938 21.71099,20.25 0.61119,0.0106 12.76119,-11.64733 27,-25.90659 z M 567.13078,534 c 18.52795,-18.7 34.10209,-34 34.60922,-34 0.50712,0 1.51201,-1.10237 2.23308,-2.44971 1.44557,-2.70106 3.77601,-0.31785 -110.08011,-112.57245 l -40.08602,-39.52216 -7.01315,7.02216 c -25.25988,25.29236 -65.24757,66.9685 -65.0134,67.75855 0.43552,1.46935 77.96531,77.88309 84.7196,83.50005 3.3,2.74432 7.85202,6.9638 10.11561,9.37662 C 484.32113,521.32659 532.05668,568 532.7516,568 c 0.38061,0 15.85124,-15.3 34.37918,-34 z m 261.74301,107.69056 c -3.64442,-1.75481 -9.04442,-4.27907 -12,-5.60948 -2.95558,-1.3304 -9.87379,-4.54314 -15.37379,-7.13942 -5.5,-2.59628 -11.8,-5.5083 -14,-6.47115 -4.87406,-2.13318 -16.24337,-7.37497 -27,-12.44827 -4.4,-2.07524 -10.025,-4.68362 -12.5,-5.79641 -15.22367,-6.84473 -29.40788,-13.49431 -49.75,-23.32287 l -16.25,-7.8514 -0.0233,-41.77578 c -0.0829,-148.53347 0.11612,-188.7686 0.93758,-189.59006 0.5013,-0.5013 1.39395,-0.61326 1.98367,-0.24879 0.75408,0.46605 1.0302,34.17947 0.93059,113.62299 -0.0779,62.12818 0.0693,113.17125 0.32709,113.42904 0.25779,0.25779 3.52783,-1.88426 7.26675,-4.76012 3.73892,-2.87586 8.06857,-6.12884 9.62144,-7.22884 9.50539,-6.73327 21.14807,-15.41489 25.45618,-18.98196 2.75,-2.27698 9.05,-7.24103 14,-11.03123 4.95,-3.7902 9.45,-7.26375 10,-7.71899 0.55,-0.45524 3.27492,-2.50173 6.05539,-4.54776 2.78046,-2.04603 5.70546,-4.28922 6.5,-4.98487 C 767.97148,506.68205 775.89957,501 776.54584,501 c 0.66169,0 15.19432,-10.8502 31.45416,-23.48398 4.675,-3.63244 10.975,-8.48274 14,-10.77843 3.025,-2.2957 6.98944,-5.43572 8.80987,-6.97781 1.82043,-1.5421 3.73293,-2.54235 4.25,-2.22278 1.98856,1.229 0.76176,3.40631 -3.80987,6.76173 -2.6125,1.91749 -7.675,5.77868 -11.25,8.58042 -3.575,2.80174 -9.425,7.22108 -13,9.82075 -3.575,2.59968 -7.4,5.5594 -8.5,6.57716 -2.70712,2.50473 -11.50901,8.78373 -19.9644,14.24199 -3.83042,2.47268 -7.3207,5.13246 -7.75619,5.91063 -0.43548,0.77817 -2.4765,2.45213 -4.5356,3.71992 -3.2971,2.03003 -15.09248,10.93886 -22.24381,16.80033 -2.96825,2.43288 -19.87845,15.27569 -40,30.37885 -7.975,5.986 -14.62281,11.20429 -14.77292,11.59618 -0.29459,0.76914 -0.14832,0.84772 13.27292,7.13134 4.95,2.31751 15.075,7.11789 22.5,10.66751 15.07905,7.20873 18.03907,8.59642 29.5,13.83 4.4,2.00924 10.25,4.70084 13,5.98133 7.67993,3.57604 22.48633,10.3926 27.5,12.66043 2.475,1.11952 8.1,3.74545 12.5,5.83541 C 823.48345,635.62297 835.65353,641 836.85337,641 c 1.13368,0 39.98358,-18.79321 65.64663,-31.75584 44.89804,-22.67839 68.0189,-34.22464 74.25,-37.07946 L 984,568.84306 V 454.52852 c 0,-98.40361 0.19979,-114.39121 1.43539,-114.86535 0.78947,-0.30295 1.62796,-0.0136 1.86332,0.64301 0.56293,1.57042 -0.23673,226.59632 -0.81447,229.19382 -0.27738,1.24713 -2.42853,2.89568 -5.71454,4.37938 -2.89833,1.30866 -6.1697,2.85247 -7.2697,3.43069 -1.1,0.57822 -10.1,5.04065 -20,9.91652 -9.9,4.87587 -18.9,9.376 -20,10.00029 -1.1,0.62429 -6.95,3.67219 -13,6.77312 -6.05,3.10093 -11.9,6.15967 -13,6.79719 -5.92793,3.43566 -69.63401,34.19362 -70.71793,34.14337 -0.70514,-0.0327 -4.26386,-1.4952 -7.90828,-3.25 z m 340.99881,2.43482 c -10.564,-2.24445 -21.8659,-11.2071 -27.0286,-21.43442 -5.4199,-10.73666 -5.6975,-21.87797 -0.8082,-32.43006 1.0803,-2.33151 1.9642,-4.61301 1.9642,-5.07 0,-1.58644 7.2026,-9.23421 11.4468,-12.1543 9.8903,-6.80472 24.1306,-9.05237 34.5532,-5.45381 12.2737,4.23765 22.0613,14.06327 25.1675,25.26525 5.8884,21.23536 -2.6765,40.29565 -21.9341,48.81229 -6.1683,2.7279 -16.8289,3.85282 -23.3608,2.46505 z m 18.864,-4.03729 c 6.5112,-1.98014 15.2608,-8.07896 18.5362,-12.9204 4.976,-7.35538 6.7272,-13.03137 6.7272,-21.80436 0,-7.42259 -0.3947,-9.40445 -2.9318,-14.72036 -3.5414,-7.42026 -9.9922,-14.34581 -16.1996,-17.39175 -18.6415,-9.14741 -41.027,-1.8584 -49.9021,16.24878 -2.1257,4.33679 -2.4518,6.39275 -2.4586,15.5 -0.01,8.61458 0.3743,11.32651 2.1208,15.10287 4.834,10.45257 14.3595,18.17214 25.3435,20.53859 7.9181,1.70589 11.7023,1.59429 18.7644,-0.55337 z"
       id="path1" />
  </g>
</svg>
